<?xml version="1.0" encoding="utf-8"?>
<!-- Generator: Adobe Illustrator 16.0.0, SVG Export Plug-In . SVG Version: 6.00 Build 0)  -->
<!DOCTYPE svg PUBLIC "-//W3C//DTD SVG 1.1//EN" "http://www.w3.org/Graphics/SVG/1.1/DTD/svg11.dtd">
<svg version="1.1" id="レイヤー_1" xmlns="http://www.w3.org/2000/svg" xmlns:xlink="http://www.w3.org/1999/xlink" x="0px"
	 y="0px" width="100px" height="100px" viewBox="0 0 100 100" enable-background="new 0 0 100 100" xml:space="preserve">
<g>
	<path fill="#353F45" d="M50.756,1.746c-26.612,0-48.263,21.643-48.263,48.244c0,26.614,21.65,48.264,48.263,48.264
		C77.357,98.254,99,76.604,99,49.99C99,23.389,77.357,1.746,50.756,1.746z M50.757,92.779c-23.594,0-42.789-19.195-42.789-42.79
		c0-23.581,19.194-42.767,42.789-42.767c23.582,0,42.767,19.186,42.767,42.767C93.523,73.584,74.339,92.779,50.757,92.779z"/>
	<path fill="#353F45" d="M75.777,26.354h-50.06c-1.483,0-2.686,1.202-2.686,2.687v36.931c0,1.484,1.203,2.686,2.686,2.686h19.676
		v4.9h-2.302c-2.777,0-5.049,2.27-5.049,5.045v0.006c0,0.738,0.603,1.34,1.341,1.34h22.725c0.741,0,1.344-0.602,1.344-1.346
		c0-2.789-2.26-5.045-5.048-5.045h-2.308v-4.9h19.682c1.482,0,2.684-1.199,2.684-2.686V29.038
		C78.461,27.556,77.26,26.354,75.777,26.354z M50.745,65.797c-1.034,0-1.872-0.828-1.872-1.867c0-1.033,0.838-1.873,1.872-1.873
		c1.031,0,1.869,0.84,1.869,1.873C52.614,64.969,51.776,65.797,50.745,65.797z M73.025,59.258H28.47V31.792h44.555V59.258z"/>
	<path fill="#353F45" d="M42.745,52.076c0.349,0.348,0.803,0.521,1.259,0.521s0.912-0.174,1.258-0.521
		c0.695-0.693,0.695-1.821,0-2.515l-4.357-4.356l4.357-4.358c0.695-0.696,0.695-1.822,0-2.516c-0.695-0.695-1.821-0.695-2.517,0
		l-5.614,5.615c-0.694,0.694-0.694,1.82,0,2.516L42.745,52.076z"/>
	<path fill="#353F45" d="M56.231,52.076c0.347,0.348,0.802,0.521,1.258,0.521s0.91-0.174,1.257-0.521l5.617-5.614
		c0.694-0.696,0.694-1.822,0-2.516l-5.617-5.615c-0.693-0.695-1.819-0.695-2.515,0c-0.695,0.694-0.695,1.82,0,2.516l4.356,4.358
		l-4.356,4.356C55.536,50.255,55.536,51.383,56.231,52.076z"/>
	<path fill="#353F45" d="M48.466,55.182c0.138,0.033,0.275,0.045,0.412,0.045c0.805,0,1.535-0.549,1.729-1.365l3.742-15.807
		c0.226-0.957-0.365-1.915-1.322-2.141c-0.957-0.228-1.914,0.364-2.14,1.322l-3.743,15.804
		C46.918,53.994,47.51,54.955,48.466,55.182z"/>
</g>
</svg>
