<svg width="83" height="80" viewBox="0 0 83 80" fill="none" xmlns="http://www.w3.org/2000/svg">
<g clip-path="url(#clip0_40_69)">
<path d="M14.5548 6.44812e-06H67.637C69.5488 -0.00179242 71.4423 0.372807 73.209 1.10237C74.9756 1.83193 76.5809 2.90212 77.9328 4.25171C79.2847 5.60129 80.3567 7.20377 81.0875 8.96743C81.8183 10.7311 82.1936 12.6213 82.1917 14.5299V65.4701C82.1936 67.3787 81.8183 69.2689 81.0875 71.0326C80.3567 72.7962 79.2847 74.3987 77.9328 75.7483C76.5809 77.0979 74.9756 78.1681 73.209 78.8976C71.4423 79.6272 69.5488 80.0018 67.637 80H14.5548C12.6429 80.0018 10.7494 79.6272 8.98276 78.8976C7.21608 78.1681 5.61085 77.0979 4.25896 75.7483C2.90706 74.3987 1.83503 72.7962 1.10422 71.0326C0.373415 69.2689 -0.00182601 67.3787 -2.40584e-05 65.4701V14.5299C-0.00182601 12.6213 0.373415 10.7311 1.10422 8.96743C1.83503 7.20377 2.90706 5.60129 4.25896 4.25171C5.61085 2.90212 7.21608 1.83193 8.98276 1.10237C10.7494 0.372807 12.6429 -0.00179242 14.5548 6.44812e-06Z" fill="#000B1D"/>
<path d="M32.5342 65.6409C37.2627 65.6409 41.0959 61.8143 41.0959 57.0939V48.5469H32.5342C27.8058 48.5469 23.9726 52.3735 23.9726 57.0939C23.9726 61.8143 27.8058 65.6409 32.5342 65.6409Z" fill="#0ACF83"/>
<path d="M23.9726 39.9999C23.9726 35.2795 27.8058 31.4529 32.5342 31.4529H41.0959V48.5469H32.5342C27.8058 48.5469 23.9726 44.7203 23.9726 39.9999Z" fill="#A259FF"/>
<path d="M23.9726 22.9059C23.9726 18.1855 27.8058 14.3589 32.5342 14.3589H41.0959V31.4529H32.5342C27.8058 31.4529 23.9726 27.6263 23.9726 22.9059Z" fill="#F24E1E"/>
<path d="M41.0959 14.3589H49.6575C54.386 14.3589 58.2192 18.1855 58.2192 22.9059C58.2192 27.6263 54.386 31.4529 49.6575 31.4529H41.0959V14.3589Z" fill="#FF7262"/>
<path d="M58.2192 39.9999C58.2192 44.7203 54.386 48.5469 49.6575 48.5469C44.9291 48.5469 41.0959 44.7203 41.0959 39.9999C41.0959 35.2795 44.9291 31.4529 49.6575 31.4529C54.386 31.4529 58.2192 35.2795 58.2192 39.9999Z" fill="#1ABCFE"/>
</g>
<defs>
<clipPath id="clip0_40_69">
<rect width="82.1918" height="80" fill="white"/>
</clipPath>
</defs>
</svg>
