<?xml version="1.0" encoding="utf-8"?>
<!-- Generator: Adobe Illustrator 16.0.0, SVG Export Plug-In . SVG Version: 6.00 Build 0)  -->
<!DOCTYPE svg PUBLIC "-//W3C//DTD SVG 1.1//EN" "http://www.w3.org/Graphics/SVG/1.1/DTD/svg11.dtd">
<svg version="1.1" id="レイヤー_1" xmlns="http://www.w3.org/2000/svg" xmlns:xlink="http://www.w3.org/1999/xlink" x="0px"
	 y="0px" width="100px" height="100px" viewBox="0 0 100 100" enable-background="new 0 0 100 100" xml:space="preserve">
<g>
	<g>
		<path fill="#19171B" d="M88.71,5.456H11.89c-3.782,0-6.859,3.078-6.859,6.859v65.846c0,3.781,3.077,6.86,6.859,6.86h20.576v8.23
			h-9.602c-0.757,0-1.373,0.613-1.373,1.372c0,0.757,0.615,1.37,1.373,1.37h54.872c0.757,0,1.37-0.613,1.37-1.37
			c0-0.759-0.613-1.372-1.37-1.372h-9.603v-8.23H88.71c3.781,0,6.857-3.079,6.857-6.86V12.315
			C95.567,8.534,92.491,5.456,88.71,5.456z M65.391,93.252H35.21v-8.23h30.181V93.252z M92.825,78.161
			c0,2.271-1.847,4.117-4.115,4.117H11.89c-2.269,0-4.116-1.847-4.116-4.117v-4.115h85.051V78.161z M50.298,55.752
			c1.424,0,2.579-1.155,2.579-2.579c0-0.919-0.483-1.719-1.206-2.175v-13.45l8.267,14.268l-3.183,10.343H43.844L40.66,51.815
			l8.268-14.268v13.448c-0.724,0.457-1.207,1.258-1.207,2.177C47.72,54.597,48.875,55.752,50.298,55.752z M41.611,64.901h17.375
			v6.402H41.611V64.901z M92.825,71.304H61.731V63.53c0-0.759-0.615-1.372-1.374-1.372h-0.733l3.113-10.109
			c0.11-0.366,0.066-0.761-0.126-1.092L51.486,31.755c-0.491-0.847-1.883-0.847-2.375,0L37.985,50.957
			c-0.192,0.332-0.236,0.726-0.124,1.092l3.112,10.109h-0.734c-0.757,0-1.371,0.613-1.371,1.372v7.773H7.774V12.315
			c0-2.269,1.847-4.115,4.116-4.115h76.82c2.269,0,4.115,1.846,4.115,4.115V71.304z"/>
	</g>
	<g>
		<path fill="#19171B" d="M79.712,18.269c-2.803,0-5.145,1.956-5.767,4.572H56.388v-3.201c0-0.757-0.613-1.371-1.371-1.371h-9.145
			c-0.757,0-1.371,0.613-1.371,1.371v3.201H25.116c-0.623-2.616-2.966-4.572-5.769-4.572c-3.278,0-5.944,2.667-5.944,5.942
			c0,3.279,2.666,5.946,5.944,5.946c2.803,0,5.146-1.956,5.769-4.572H44.5v3.2c0,0.757,0.614,1.373,1.371,1.373h9.145
			c0.758,0,1.371-0.616,1.371-1.373v-3.2h17.558c0.622,2.616,2.964,4.572,5.767,4.572c3.276,0,5.943-2.667,5.943-5.946
			C85.655,20.936,82.988,18.269,79.712,18.269z M19.347,27.412c-1.765,0-3.201-1.435-3.201-3.201c0-1.765,1.436-3.2,3.201-3.2
			c1.764,0,3.201,1.435,3.201,3.2C22.548,25.978,21.111,27.412,19.347,27.412z M53.646,27.412h-6.403v-6.401h6.403V27.412z
			 M79.712,27.412c-1.765,0-3.2-1.435-3.2-3.201c0-1.765,1.436-3.2,3.2-3.2c1.767,0,3.201,1.435,3.201,3.2
			C82.913,25.978,81.479,27.412,79.712,27.412z"/>
	</g>
</g>
</svg>
