<?xml version="1.0" encoding="utf-8"?>
<!-- Generator: Adobe Illustrator 16.0.0, SVG Export Plug-In . SVG Version: 6.00 Build 0)  -->
<!DOCTYPE svg PUBLIC "-//W3C//DTD SVG 1.1//EN" "http://www.w3.org/Graphics/SVG/1.1/DTD/svg11.dtd">
<svg version="1.1" id="レイヤー_1" xmlns="http://www.w3.org/2000/svg" xmlns:xlink="http://www.w3.org/1999/xlink" x="0px"
	 y="0px" width="100px" height="100px" viewBox="0 0 100 100" enable-background="new 0 0 100 100" xml:space="preserve">
<g>
	<g>
		<polygon fill="#D84D29" points="50.424,98.113 16.656,88.739 9.131,4.337 91.816,4.337 84.285,88.727 		"/>
		<polygon fill="#E4642C" points="77.835,83.352 84.272,11.239 50.475,11.239 50.475,90.938 		"/>
	</g>
	<polygon fill="#FFFFFF" points="50.506,31.94 75.473,31.94 76.4,21.59 50.506,21.59 50.47,21.59 24.548,21.59 27.341,52.894 
		50.47,52.894 50.506,52.894 63.216,52.894 62.014,66.318 50.47,69.434 50.47,69.437 50.459,69.438 38.932,66.325 38.195,58.069 
		27.803,58.069 29.254,74.321 50.457,80.208 50.506,80.195 50.506,80.193 71.69,74.321 74.532,42.542 50.506,42.542 50.47,42.542 
		36.808,42.542 35.862,31.94 50.47,31.94 	"/>
	<g>
		<polygon fill="#EBEBEB" points="50.475,69.432 50.47,69.434 50.47,69.437 50.459,69.438 38.932,66.325 38.195,58.069 
			27.803,58.069 29.254,74.321 50.457,80.208 50.475,80.204 		"/>
		<polygon fill="#EBEBEB" points="50.475,52.894 50.475,42.542 50.47,42.542 36.808,42.542 35.862,31.94 50.47,31.94 50.475,31.94 
			50.475,21.59 50.47,21.59 24.548,21.59 27.341,52.894 50.47,52.894 		"/>
	</g>
</g>
</svg>
