<svg width="82" height="80" viewBox="0 0 82 80" fill="none" xmlns="http://www.w3.org/2000/svg">
<g clip-path="url(#clip0_40_33)">
<path d="M14.5208 6.44812e-06H67.4791C69.3866 -0.00179242 71.2756 0.372807 73.0381 1.10237C74.8007 1.83193 76.4022 2.90212 77.7509 4.25171C79.0997 5.60129 80.1692 7.20377 80.8983 8.96743C81.6274 10.7311 82.0018 12.6213 82 14.5299V65.4701C82.0018 67.3787 81.6274 69.2689 80.8983 71.0326C80.1692 72.7962 79.0997 74.3987 77.7509 75.7483C76.4022 77.0979 74.8007 78.1681 73.0381 78.8976C71.2756 79.6272 69.3866 80.0018 67.4791 80H14.5208C12.6134 80.0018 10.7244 79.6272 8.9618 78.8976C7.19924 78.1681 5.59776 77.0979 4.24902 75.7483C2.90028 74.3987 1.83075 72.7962 1.10165 71.0326C0.372544 69.2689 -0.00182182 67.3787 -2.40735e-05 65.4701V14.5299C-0.00182182 12.6213 0.372544 10.7311 1.10165 8.96743C1.83075 7.20377 2.90028 5.60129 4.24902 4.25171C5.59776 2.90212 7.19924 1.83193 8.9618 1.10237C10.7244 0.372807 12.6134 -0.00179242 14.5208 6.44812e-06Z" fill="#330000"/>
<path d="M39.7358 47.9999H27.0258L24.4292 56.0341C24.4001 56.1805 24.3175 56.3108 24.1973 56.3994C24.0772 56.4879 23.9284 56.5284 23.78 56.5127H17.3567C16.9808 56.5127 16.8783 56.3076 16.9808 55.8973L27.9825 24.205C28.085 23.8631 28.1875 23.4871 28.3242 23.0768C28.4617 22.3441 28.5303 21.6001 28.5292 20.8546C28.5189 20.769 28.5414 20.6826 28.5921 20.6129C28.6428 20.5431 28.7179 20.4952 28.8025 20.4785H37.6517C37.925 20.4785 38.0617 20.5811 38.0958 20.752L50.5667 55.9657C50.6692 56.3418 50.5667 56.5127 50.225 56.5127H43.0842C42.9634 56.5243 42.8424 56.493 42.7424 56.4242C42.6424 56.3555 42.5699 56.2536 42.5375 56.1366L39.7358 47.9999ZM29.0075 41.0597H37.6858C37.4808 40.3418 37.2075 39.4871 36.9 38.5982C36.5925 37.7093 36.285 36.6836 35.9775 35.658C35.67 34.6324 35.3283 33.5725 34.9867 32.5127C34.645 31.4529 34.3375 30.4614 34.0642 29.47C33.7908 28.4785 33.5517 27.6238 33.3125 26.8033H33.2442C32.9371 28.2934 32.5493 29.7656 32.0825 31.2136C31.57 32.8546 31.0575 34.564 30.5108 36.2734C30.0325 38.017 29.52 39.6238 29.0075 41.0597Z" fill="#FF9A00"/>
<path d="M58.015 26.3247C57.4542 26.337 56.8965 26.2375 56.3745 26.0321C55.8524 25.8267 55.3764 25.5194 54.9742 25.1282C54.1914 24.2717 53.7744 23.1428 53.8125 21.9829C53.7923 21.4177 53.8914 20.8546 54.1034 20.3303C54.3153 19.806 54.6353 19.3323 55.0425 18.9401C55.8637 18.1634 56.9534 17.7347 58.0833 17.7435C59.4158 17.7435 60.4408 18.1538 61.1925 18.9401C61.9494 19.7691 62.3538 20.8605 62.32 21.9829C62.3408 22.5605 62.2458 23.1364 62.0404 23.6767C61.835 24.2169 61.5234 24.7105 61.1242 25.1282C60.7216 25.5385 60.2357 25.8576 59.6993 26.0641C59.163 26.2705 58.5886 26.3594 58.015 26.3247ZM54.1883 56V29.6752C54.1883 29.3333 54.325 29.1965 54.6325 29.1965H61.3975C61.705 29.1965 61.8417 29.3675 61.8417 29.6752V56C61.8417 56.376 61.705 56.547 61.3975 56.547H54.7008C54.629 56.5529 54.5568 56.5425 54.4896 56.5166C54.4224 56.4907 54.3618 56.4499 54.3126 56.3973C54.2633 56.3447 54.2265 56.2817 54.205 56.2129C54.1835 56.1441 54.1778 56.0713 54.1883 56Z" fill="#FF9A00"/>
</g>
<defs>
<clipPath id="clip0_40_33">
<rect width="82" height="80" fill="white"/>
</clipPath>
</defs>
</svg>
