<?xml version="1.0" encoding="utf-8"?>
<!-- Generator: Adobe Illustrator 16.0.0, SVG Export Plug-In . SVG Version: 6.00 Build 0)  -->
<!DOCTYPE svg PUBLIC "-//W3C//DTD SVG 1.1//EN" "http://www.w3.org/Graphics/SVG/1.1/DTD/svg11.dtd">
<svg version="1.1" id="レイヤー_1" xmlns="http://www.w3.org/2000/svg" xmlns:xlink="http://www.w3.org/1999/xlink" x="0px"
	 y="0px" width="100px" height="100px" viewBox="0 0 100 100" enable-background="new 0 0 100 100" xml:space="preserve">
<g>
	<g>
		<polygon fill="#D2B434" points="49.95,97.462 17.407,88.428 10.155,7.084 89.845,7.084 82.584,88.414 		"/>
		<polygon fill="#F5D143" points="76.368,83.236 82.574,13.735 49.999,13.735 49.999,90.546 		"/>
	</g>
	<polygon fill="#FFFFFF" points="51.797,23.71 51.797,53.881 61.773,53.881 61.891,53.881 60.73,66.818 51.797,69.23 51.797,79.593 
		70.056,74.531 72.794,43.904 61.773,43.904 61.773,33.687 73.669,33.687 73.701,33.687 74.596,23.71 	"/>
	<polygon fill="#FFFFFF" points="38.1,23.71 39.606,67.386 36.537,66.659 35.886,58.868 27.76,58.868 29.157,74.531 47.421,79.604 
		47.421,23.71 	"/>
</g>
</svg>
