<?xml version="1.0" encoding="utf-8"?>
<!-- Generator: Adobe Illustrator 16.0.0, SVG Export Plug-In . SVG Version: 6.00 Build 0)  -->
<!DOCTYPE svg PUBLIC "-//W3C//DTD SVG 1.1//EN" "http://www.w3.org/Graphics/SVG/1.1/DTD/svg11.dtd">
<svg version="1.1" id="レイヤー_1" xmlns="http://www.w3.org/2000/svg" xmlns:xlink="http://www.w3.org/1999/xlink" x="0px"
	 y="0px" width="73.296px" height="32.479px" viewBox="0 0 73.296 32.479" enable-background="new 0 0 73.296 32.479"
	 xml:space="preserve">
<g>
	<path fill="#1A1F30" d="M14.444,6.481c0-0.715,0.114-1.37,0.343-1.965c0.229-0.594,0.569-1.105,1.022-1.533s1.018-0.76,1.695-0.997
		s1.464-0.355,2.361-0.355s1.684,0.119,2.361,0.355s1.242,0.569,1.695,0.997s0.793,0.938,1.022,1.533
		c0.229,0.595,0.343,1.25,0.343,1.965c0,0.724-0.114,1.386-0.343,1.987s-0.569,1.115-1.022,1.542s-1.018,0.76-1.695,0.997
		s-1.464,0.355-2.361,0.355s-1.684-0.119-2.361-0.355s-1.242-0.569-1.695-0.997s-0.793-0.941-1.022-1.542S14.444,7.205,14.444,6.481
		z M19.865,10.048c0.254,0,0.478-0.044,0.673-0.133s0.357-0.262,0.489-0.521s0.23-0.62,0.298-1.085s0.102-1.075,0.102-1.828
		c0-0.745-0.034-1.348-0.102-1.809s-0.167-0.819-0.298-1.073s-0.294-0.425-0.489-0.514s-0.419-0.133-0.673-0.133
		s-0.479,0.044-0.676,0.133c-0.196,0.089-0.36,0.26-0.492,0.514s-0.23,0.611-0.298,1.073s-0.102,1.064-0.102,1.809
		c0,0.753,0.034,1.363,0.102,1.828s0.167,0.827,0.298,1.085s0.295,0.432,0.492,0.521C19.386,10.004,19.611,10.048,19.865,10.048z"/>
	<path fill="#1A1F30" d="M27.146,1.784h2.596l3.567,4.938l3.39-4.938h2.526v9.433h-3.663V6.398l-3.517,4.938l-3.504-4.938v4.818
		h-1.396V1.784z"/>
	<path fill="#1A1F30" d="M41.638,1.784h3.675l-0.006,9.433h-3.669V1.784z"/>
	<path fill="#1A1F30" d="M47.979,4.399c0.141-0.144,0.268-0.281,0.381-0.413c0.115-0.131,0.219-0.262,0.312-0.394
		s0.179-0.266,0.257-0.403c0.078-0.138,0.149-0.287,0.213-0.448l-1.732-0.857c0-0.233,0.043-0.444,0.129-0.635
		c0.088-0.19,0.203-0.354,0.347-0.489s0.313-0.24,0.508-0.314c0.194-0.074,0.399-0.111,0.616-0.111c0.24,0,0.461,0.037,0.66,0.111
		c0.198,0.074,0.367,0.178,0.508,0.311c0.139,0.134,0.248,0.296,0.326,0.489c0.078,0.192,0.117,0.405,0.117,0.638
		c0,0.241-0.043,0.492-0.129,0.752c-0.088,0.261-0.213,0.524-0.379,0.791c-0.164,0.267-0.365,0.531-0.6,0.793
		s-0.5,0.514-0.797,0.755L47.979,4.399z"/>
	<path fill="#1A1F30" d="M52.771,9.591c0.174,0.093,0.341,0.178,0.502,0.254c0.16,0.076,0.321,0.141,0.482,0.193
		c0.16,0.053,0.322,0.094,0.484,0.124c0.164,0.03,0.334,0.044,0.512,0.044c0.279,0,0.48-0.034,0.604-0.102
		c0.122-0.068,0.184-0.157,0.184-0.267c0-0.068-0.02-0.125-0.061-0.171c-0.04-0.046-0.096-0.088-0.168-0.124
		c-0.072-0.036-0.156-0.069-0.254-0.102c-0.098-0.031-0.205-0.064-0.324-0.098l-0.361-0.108c-0.355-0.106-0.662-0.229-0.92-0.371
		c-0.259-0.142-0.471-0.302-0.635-0.479c-0.166-0.178-0.288-0.369-0.369-0.574c-0.08-0.206-0.12-0.424-0.12-0.657
		c0-0.3,0.067-0.591,0.203-0.873C52.666,6,52.875,5.749,53.158,5.529c0.284-0.22,0.646-0.396,1.09-0.527
		c0.441-0.131,0.967-0.197,1.576-0.197c0.229,0,0.467,0.014,0.715,0.041c0.248,0.028,0.487,0.063,0.721,0.105
		c0.232,0.042,0.45,0.09,0.653,0.143c0.203,0.053,0.374,0.106,0.515,0.162l-0.559,1.022c-0.094-0.051-0.203-0.096-0.328-0.137
		c-0.124-0.04-0.252-0.076-0.383-0.107C57.026,6.001,56.9,5.978,56.779,5.96c-0.119-0.017-0.223-0.025-0.307-0.025
		c-0.246,0-0.422,0.034-0.527,0.102s-0.158,0.15-0.158,0.248c0,0.038,0.01,0.078,0.031,0.121s0.063,0.087,0.127,0.133
		s0.152,0.095,0.267,0.146s0.265,0.104,0.45,0.159l0.355,0.108c0.395,0.119,0.721,0.252,0.98,0.4
		c0.262,0.148,0.471,0.308,0.629,0.479c0.158,0.172,0.271,0.353,0.336,0.543c0.066,0.19,0.1,0.385,0.1,0.584
		c0,0.305-0.074,0.601-0.223,0.889s-0.385,0.542-0.707,0.762c-0.324,0.22-0.742,0.396-1.254,0.53c-0.513,0.133-1.133,0.2-1.86,0.2
		c-0.313,0-0.601-0.013-0.863-0.038s-0.51-0.063-0.743-0.114c-0.232-0.051-0.455-0.113-0.67-0.187
		c-0.213-0.074-0.424-0.158-0.631-0.251L52.771,9.591z"/>
	<path fill="#1A1F30" d="M1.206,19.784h4.539c0.838-0.004,1.561,0.069,2.167,0.219c0.607,0.15,1.108,0.365,1.501,0.645
		s0.685,0.615,0.873,1.006c0.188,0.392,0.283,0.827,0.283,1.304c0,0.42-0.088,0.82-0.263,1.203
		c-0.176,0.383-0.447,0.721-0.813,1.013c-0.366,0.292-0.832,0.524-1.396,0.698c-0.565,0.174-1.237,0.26-2.016,0.26H4.875v3.086
		H1.206V19.784z M4.875,24.748c0.292-0.005,0.552-0.051,0.781-0.137c0.229-0.087,0.421-0.207,0.578-0.361
		c0.157-0.155,0.276-0.342,0.358-0.559c0.083-0.219,0.124-0.463,0.124-0.734c0-0.266-0.042-0.508-0.127-0.723
		c-0.084-0.217-0.206-0.401-0.365-0.556c-0.158-0.154-0.351-0.276-0.577-0.365c-0.227-0.089-0.484-0.138-0.771-0.146V24.748z"/>
	<path fill="#1A1F30" d="M11.356,26.074c0-0.5,0.103-0.95,0.308-1.352c0.205-0.402,0.501-0.745,0.889-1.029
		c0.387-0.283,0.86-0.502,1.418-0.656s1.193-0.232,1.904-0.232s1.346,0.078,1.904,0.232s1.032,0.373,1.418,0.656
		c0.388,0.284,0.684,0.627,0.889,1.029c0.206,0.401,0.308,0.852,0.308,1.352c0,0.495-0.103,0.943-0.308,1.346
		c-0.205,0.402-0.501,0.744-0.889,1.029c-0.387,0.283-0.86,0.502-1.418,0.656s-1.193,0.232-1.904,0.232s-1.346-0.078-1.904-0.232
		s-1.032-0.373-1.418-0.656c-0.388-0.285-0.684-0.627-0.889-1.029C11.458,27.018,11.356,26.569,11.356,26.074z M15.875,28.176
		c0.157,0,0.296-0.033,0.419-0.096c0.123-0.064,0.224-0.174,0.305-0.334c0.081-0.158,0.142-0.373,0.184-0.644
		s0.063-0.614,0.063-1.028c0-0.419-0.021-0.764-0.063-1.035c-0.042-0.271-0.104-0.484-0.184-0.645
		c-0.081-0.158-0.182-0.27-0.305-0.332c-0.123-0.064-0.262-0.096-0.419-0.096c-0.161,0-0.301,0.031-0.422,0.096
		c-0.12,0.063-0.221,0.174-0.301,0.332c-0.081,0.16-0.142,0.374-0.184,0.645c-0.042,0.271-0.063,0.616-0.063,1.035
		c0,0.414,0.021,0.758,0.063,1.028s0.104,0.485,0.184,0.644c0.081,0.16,0.181,0.27,0.301,0.334
		C15.574,28.143,15.715,28.176,15.875,28.176z"/>
	<path fill="#1A1F30" d="M21.76,22.926H24.8l0.305,0.914c0.241-0.178,0.469-0.331,0.682-0.461c0.214-0.129,0.421-0.236,0.622-0.322
		c0.201-0.088,0.396-0.15,0.584-0.191c0.188-0.04,0.376-0.061,0.562-0.061c0.271,0,0.515,0.039,0.733,0.115
		c0.218,0.076,0.404,0.184,0.559,0.323c0.155,0.14,0.273,0.306,0.355,0.499c0.083,0.191,0.124,0.404,0.124,0.637
		c0,0.233-0.05,0.447-0.149,0.642c-0.099,0.194-0.244,0.362-0.435,0.505c-0.19,0.142-0.424,0.252-0.701,0.33
		c-0.277,0.078-0.594,0.117-0.949,0.117l-1.117-1.492c-0.123,0-0.256,0.025-0.4,0.076s-0.267,0.132-0.368,0.242v4.418H21.76V22.926z
		"/>
	<path fill="#1A1F30" d="M30.672,23.973h-0.711v-1.047h0.711v-2.095h3.447v2.095h1.657l-0.647,1.047h-1.009v2.851
		c0,0.432,0.096,0.763,0.289,0.997c0.192,0.232,0.468,0.348,0.828,0.348l-0.394,0.871c-0.22,0.092-0.454,0.166-0.701,0.219
		c-0.248,0.053-0.535,0.08-0.86,0.08c-0.457,0-0.851-0.059-1.181-0.176c-0.33-0.115-0.601-0.281-0.813-0.498
		c-0.211-0.215-0.367-0.48-0.467-0.793c-0.099-0.314-0.149-0.667-0.149-1.061V23.973z"/>
	<path fill="#1A1F30" d="M37.032,23.973h-0.698v-1.047h0.698v-0.66c0-0.614,0.091-1.148,0.272-1.603
		c0.183-0.455,0.439-0.831,0.771-1.13c0.332-0.298,0.733-0.521,1.203-0.669s0.994-0.222,1.574-0.222c0.419,0,0.799,0.043,1.14,0.13
		c0.341,0.087,0.632,0.207,0.872,0.359c0.242,0.152,0.429,0.331,0.563,0.537c0.133,0.205,0.199,0.426,0.199,0.663
		c0,0.224-0.042,0.423-0.127,0.597c-0.084,0.173-0.196,0.322-0.336,0.444s-0.299,0.216-0.479,0.279
		c-0.18,0.063-0.364,0.095-0.556,0.095l-1.65-2.247v3.428h1.842l-0.654,1.047h-1.188v5.244h-3.446V23.973z"/>
	<path fill="#1A1F30" d="M43.342,26.074c0-0.5,0.103-0.95,0.309-1.352c0.205-0.402,0.5-0.745,0.889-1.029
		c0.387-0.283,0.859-0.502,1.418-0.656s1.193-0.232,1.904-0.232s1.346,0.078,1.904,0.232s1.031,0.373,1.418,0.656
		c0.389,0.284,0.684,0.627,0.889,1.029c0.206,0.401,0.309,0.852,0.309,1.352c0,0.495-0.103,0.943-0.309,1.346
		c-0.205,0.402-0.5,0.744-0.889,1.029c-0.387,0.283-0.859,0.502-1.418,0.656s-1.193,0.232-1.904,0.232s-1.346-0.078-1.904-0.232
		s-1.031-0.373-1.418-0.656c-0.389-0.285-0.684-0.627-0.889-1.029C43.444,27.018,43.342,26.569,43.342,26.074z M47.861,28.176
		c0.156,0,0.297-0.033,0.419-0.096c0.122-0.064,0.224-0.174,0.305-0.334c0.081-0.158,0.142-0.373,0.185-0.644
		c0.042-0.271,0.063-0.614,0.063-1.028c0-0.419-0.021-0.764-0.063-1.035c-0.043-0.271-0.104-0.484-0.185-0.645
		c-0.081-0.158-0.183-0.27-0.305-0.332c-0.122-0.064-0.263-0.096-0.419-0.096c-0.16,0-0.301,0.031-0.422,0.096
		c-0.121,0.063-0.221,0.174-0.302,0.332c-0.081,0.16-0.142,0.374-0.185,0.645c-0.042,0.271-0.063,0.616-0.063,1.035
		c0,0.414,0.021,0.758,0.063,1.028c0.043,0.271,0.104,0.485,0.185,0.644c0.081,0.16,0.181,0.27,0.302,0.334
		C47.561,28.143,47.701,28.176,47.861,28.176z"/>
	<path fill="#1A1F30" d="M53.746,18.736h3.446v10.48h-3.446V18.736z"/>
	<path fill="#1A1F30" d="M60.689,21.879c-0.313,0-0.582-0.034-0.809-0.102s-0.412-0.162-0.556-0.282
		c-0.144-0.121-0.249-0.261-0.317-0.419c-0.068-0.159-0.102-0.332-0.102-0.518c0-0.182,0.033-0.354,0.102-0.514
		s0.174-0.301,0.317-0.422c0.144-0.12,0.329-0.214,0.556-0.282s0.496-0.102,0.809-0.102c0.318,0,0.589,0.034,0.813,0.102
		c0.225,0.068,0.41,0.162,0.556,0.282c0.146,0.121,0.253,0.262,0.321,0.422c0.067,0.161,0.102,0.332,0.102,0.514
		c0,0.186-0.034,0.358-0.102,0.518c-0.068,0.158-0.175,0.298-0.321,0.419c-0.146,0.12-0.331,0.214-0.556,0.282
		C61.278,21.845,61.008,21.879,60.689,21.879z M58.97,22.926h3.446v6.291H58.97V22.926z"/>
	<path fill="#1A1F30" d="M63.781,26.074c0-0.5,0.103-0.95,0.309-1.352c0.205-0.402,0.5-0.745,0.889-1.029
		c0.387-0.283,0.859-0.502,1.418-0.656s1.193-0.232,1.904-0.232c0.712,0,1.347,0.078,1.905,0.232s1.031,0.373,1.418,0.656
		c0.387,0.284,0.684,0.627,0.889,1.029c0.205,0.401,0.309,0.852,0.309,1.352c0,0.495-0.104,0.943-0.309,1.346
		s-0.502,0.744-0.889,1.029c-0.387,0.283-0.859,0.502-1.418,0.656s-1.193,0.232-1.905,0.232c-0.711,0-1.346-0.078-1.904-0.232
		s-1.031-0.373-1.418-0.656c-0.389-0.285-0.684-0.627-0.889-1.029C63.884,27.018,63.781,26.569,63.781,26.074z M68.301,28.176
		c0.157,0,0.296-0.033,0.419-0.096c0.123-0.064,0.225-0.174,0.305-0.334c0.08-0.158,0.143-0.373,0.184-0.644
		c0.043-0.271,0.064-0.614,0.064-1.028c0-0.419-0.021-0.764-0.064-1.035c-0.041-0.271-0.104-0.484-0.184-0.645
		c-0.08-0.158-0.182-0.27-0.305-0.332c-0.123-0.064-0.262-0.096-0.419-0.096c-0.161,0-0.301,0.031-0.422,0.096
		c-0.121,0.063-0.221,0.174-0.302,0.332c-0.081,0.16-0.142,0.374-0.185,0.645c-0.042,0.271-0.063,0.616-0.063,1.035
		c0,0.414,0.021,0.758,0.063,1.028c0.043,0.271,0.104,0.485,0.185,0.644c0.081,0.16,0.181,0.27,0.302,0.334
		C68,28.143,68.14,28.176,68.301,28.176z"/>
</g>
<text transform="matrix(1 0 0 1 11.3984 11.2163)" display="none"><tspan x="0" y="0" display="inline" fill="#FFFFFF" font-family="'PollerOne-Regular'" font-size="13">OMI</tspan><tspan x="32.729" y="0" display="inline" fill="#FFFFFF" font-family="'PollerOne-Regular'" font-size="13" letter-spacing="6">’</tspan><tspan x="44.345" y="0" display="inline" fill="#FFFFFF" font-family="'PollerOne-Regular'" font-size="13">s</tspan><tspan x="-10.541" y="18" display="inline" fill="#FFFFFF" font-family="'PollerOne-Regular'" font-size="13">Portfolio</tspan></text>
</svg>
