<svg width="83" height="80" viewBox="0 0 83 80" fill="none" xmlns="http://www.w3.org/2000/svg">
<g clip-path="url(#clip0_40_45)">
<path d="M14.5346 6.44812e-06H67.5433C69.4525 -0.00179242 71.3433 0.372807 73.1076 1.10237C74.8718 1.83193 76.4748 2.90212 77.8248 4.25171C79.1749 5.60129 80.2454 7.20377 80.9752 8.96744C81.705 10.7311 82.0797 12.6213 82.0779 14.5299V65.4701C82.0797 67.3787 81.705 69.2689 80.9752 71.0326C80.2454 72.7962 79.1749 74.3987 77.8248 75.7483C76.4748 77.0979 74.8718 78.1681 73.1076 78.8977C71.3433 79.6272 69.4525 80.0018 67.5433 80H14.5346C12.6254 80.0018 10.7346 79.6272 8.97032 78.8977C7.20608 78.1681 5.60308 77.0979 4.25306 75.7483C2.90303 74.3987 1.83249 72.7962 1.10269 71.0326C0.372898 69.2689 -0.00182352 67.3787 -2.40674e-05 65.4701V14.5299C-0.00182352 12.6213 0.372898 10.7311 1.10269 8.96744C1.83249 7.20377 2.90303 5.60129 4.25306 4.25171C5.60308 2.90212 7.20608 1.83193 8.97032 1.10237C10.7346 0.372807 12.6254 -0.00179242 14.5346 6.44812e-06Z" fill="#001E36"/>
<path d="M18.4675 56.1025V20.923C18.4675 20.6837 18.5701 20.5469 18.8095 20.5469C19.3909 20.5469 19.9381 20.5469 20.7247 20.5127C21.5113 20.4785 22.4004 20.4785 23.3238 20.4444C24.2472 20.4102 25.239 20.4102 26.2991 20.376C27.3593 20.3418 28.3853 20.3418 29.4113 20.3418C32.2156 20.3418 34.5411 20.6837 36.4563 21.4016C38.1731 21.9844 39.7385 22.9421 41.039 24.205C42.141 25.3103 42.9924 26.6395 43.5355 28.1025C44.0532 29.5272 44.3193 31.0311 44.3221 32.5469C44.3221 35.4871 43.6381 37.9144 42.2701 39.829C40.8958 41.7409 38.977 43.1944 36.7641 43.9999C34.4385 44.8546 31.8736 45.1623 29.0693 45.1623C28.2485 45.1623 27.7013 45.1623 27.3593 45.1281C27.0173 45.0939 26.5385 45.0939 25.8887 45.0939V56.0683C25.8964 56.1245 25.8926 56.1818 25.8777 56.2365C25.8628 56.2913 25.8371 56.3426 25.802 56.3872C25.7669 56.4318 25.7232 56.469 25.6735 56.4964C25.6238 56.5239 25.569 56.541 25.5126 56.5469H18.8779C18.6043 56.5469 18.4675 56.4102 18.4675 56.1025ZM25.9229 27.1452V38.6324C26.4017 38.6666 26.8463 38.7008 27.2567 38.7008H29.0693C30.4043 38.7024 31.7314 38.4947 33.0022 38.0854C34.0924 37.7649 35.0664 37.1355 35.8065 36.2734C36.5247 35.4187 36.8667 34.2563 36.8667 32.7521C36.8988 31.6837 36.626 30.6283 36.0801 29.7093C35.5098 28.8217 34.6712 28.139 33.6861 27.7606C32.4023 27.2579 31.0285 27.0252 29.6506 27.0768C28.7615 27.0768 27.9749 27.0768 27.3251 27.111C26.8576 27.0805 26.3884 27.0919 25.9229 27.1452Z" fill="#31A8FF"/>
<path d="M65.6623 36.5468C64.6298 36.0031 63.5239 35.6116 62.3792 35.3844C61.122 35.0998 59.8379 34.9508 58.5489 34.94C57.8568 34.9161 57.165 34.9968 56.497 35.1793C56.071 35.2679 55.6932 35.5116 55.4368 35.863C55.264 36.1404 55.1695 36.4594 55.1632 36.7861C55.1791 37.1114 55.299 37.4229 55.5052 37.675C55.8293 38.0551 56.2242 38.3686 56.668 38.5981C57.4546 39.0083 58.2753 39.3844 59.0961 39.7263C60.9438 40.3481 62.7116 41.1858 64.3628 42.222C65.4859 42.928 66.4146 43.9034 67.0645 45.0596C67.6141 46.1503 67.8843 47.3602 67.8511 48.581C67.8788 50.1969 67.4136 51.7829 66.5173 53.128C65.5634 54.4927 64.2324 55.5501 62.687 56.1707C61.0113 56.8887 58.9593 57.2648 56.497 57.2648C54.9357 57.2711 53.3777 57.1222 51.8459 56.8203C50.6397 56.612 49.4667 56.2441 48.3576 55.7263C48.2383 55.6665 48.1392 55.5731 48.0724 55.4577C48.0055 55.3423 47.9739 55.2099 47.9814 55.0767V49.128C47.9784 49.0696 47.9893 49.0113 48.013 48.9578C48.0368 48.9044 48.0728 48.8573 48.1182 48.8203C48.1664 48.7922 48.2223 48.7804 48.2777 48.7866C48.3332 48.7927 48.3851 48.8165 48.426 48.8545C49.7434 49.6309 51.1743 50.1961 52.6667 50.5297C53.9844 50.8725 55.3406 51.0448 56.7022 51.0425C58.0017 51.0425 58.9251 50.8716 59.5407 50.5639C59.8153 50.4371 60.048 50.2347 60.2115 49.9804C60.3751 49.726 60.4627 49.4303 60.4641 49.128C60.4641 48.6494 60.1905 48.2049 59.6433 47.7605C59.0961 47.316 57.9675 46.8032 56.2918 46.1536C54.5727 45.5481 52.9401 44.7206 51.4355 43.6921C50.3639 42.9286 49.476 41.9358 48.8364 40.7861C48.2906 39.7063 48.0204 38.5084 48.0498 37.2989C48.0548 35.8401 48.4568 34.4101 49.2126 33.1622C50.0813 31.7897 51.3283 30.6975 52.8035 30.0169C54.4108 29.1964 56.4286 28.8203 58.8567 28.8203C60.2759 28.8207 61.6931 28.9235 63.0974 29.128C64.1071 29.2646 65.0954 29.5288 66.0385 29.9143C66.1888 29.9676 66.3118 30.0782 66.3805 30.222C66.42 30.3555 66.4429 30.4933 66.4489 30.6323V36.2049C66.4495 36.2714 66.4343 36.337 66.4045 36.3964C66.3748 36.4558 66.3314 36.5074 66.2779 36.5468C66.079 36.6183 65.8613 36.6183 65.6623 36.5468Z" fill="#31A8FF"/>
</g>
<defs>
<clipPath id="clip0_40_45">
<rect width="82.0779" height="80" fill="white"/>
</clipPath>
</defs>
</svg>
