<svg width="82" height="80" viewBox="0 0 82 80" fill="none" xmlns="http://www.w3.org/2000/svg">
<g clip-path="url(#clip0_40_57)">
<path d="M14.4961 6.44812e-06H67.3643C69.2685 -0.00179242 71.1543 0.372807 72.9139 1.10237C74.6734 1.83193 76.2722 2.90212 77.6186 4.25171C78.9651 5.60129 80.0328 7.20377 80.7607 8.96744C81.4885 10.7311 81.8623 12.6213 81.8605 14.5299V65.4701C81.8623 67.3787 81.4885 69.2689 80.7607 71.0326C80.0328 72.7962 78.9651 74.3987 77.6186 75.7483C76.2722 77.0979 74.6734 78.1681 72.9139 78.8977C71.1543 79.6272 69.2685 80.0018 67.3643 80H14.4961C12.592 80.0018 10.7061 79.6272 8.94657 78.8977C7.18701 78.1681 5.58825 77.0979 4.24181 75.7483C2.89536 74.3987 1.82765 72.7962 1.09979 71.0326C0.371925 69.2689 -0.00180351 67.3787 -8.82566e-06 65.4701V14.5299C-0.00180351 12.6213 0.371925 10.7311 1.09979 8.96744C1.82765 7.20377 2.89536 5.60129 4.24181 4.25171C5.58825 2.90212 7.18701 1.83193 8.94657 1.10237C10.7061 0.372807 12.592 -0.00179242 14.4961 6.44812e-06Z" fill="#00005B"/>
<path d="M19.4419 56.1025V20.923C19.4419 20.6837 19.5442 20.5469 19.7829 20.5469C20.3628 20.5469 20.9085 20.5469 21.693 20.5127C22.4775 20.4785 23.3643 20.4785 24.2853 20.4444C25.2062 20.4102 26.1954 20.4102 27.2527 20.376C28.3101 20.3418 29.3333 20.3418 30.3566 20.3418C33.1535 20.3418 35.4729 20.6837 37.383 21.4016C39.0952 21.9844 40.6565 22.9421 41.9535 24.205C43.0526 25.3103 43.9018 26.6395 44.4434 28.1025C44.9597 29.5272 45.2252 31.0311 45.2279 32.5469C45.2279 35.4871 44.5457 37.9144 43.1814 39.829C41.8107 41.7409 39.897 43.1944 37.6899 43.9999C35.3705 44.8546 32.8124 45.1623 30.0155 45.1623C29.1969 45.1623 28.6512 45.1623 28.3101 45.1281C27.969 45.0939 27.4915 45.0939 26.8434 45.0939V56.0683C26.851 56.1245 26.8473 56.1818 26.8324 56.2365C26.8176 56.2913 26.7919 56.3426 26.7569 56.3872C26.7219 56.4318 26.6783 56.469 26.6287 56.4964C26.5791 56.5238 26.5246 56.541 26.4682 56.5469H19.8512C19.5783 56.5469 19.4419 56.4102 19.4419 56.1025ZM26.8775 27.1452V38.6324C27.355 38.6666 27.7985 38.7008 28.2078 38.7008H30.0155C31.3471 38.7024 32.6706 38.4947 33.938 38.0854C35.0253 37.7649 35.9968 37.1355 36.7349 36.2734C37.4512 35.4187 37.7923 34.2563 37.7923 32.7521C37.8244 31.6837 37.5522 30.6283 37.0078 29.7093C36.439 28.8217 35.6026 28.139 34.6202 27.7606C33.3397 27.2579 31.9696 27.0252 30.5954 27.0768C29.7085 27.0768 28.924 27.0768 28.276 27.111C27.8097 27.0805 27.3417 27.0919 26.8775 27.1452Z" fill="#9999FF"/>
<path d="M50.0031 29.128H55.9721C56.1338 29.1319 56.2901 29.1869 56.4187 29.2851C56.5473 29.3834 56.6417 29.5198 56.6884 29.675C56.7925 29.9501 56.8612 30.2373 56.893 30.5297C56.9612 30.8716 57.0295 31.2477 57.0636 31.5896C57.0977 31.9314 57.1318 32.3759 57.1318 32.8203C58.1559 31.6219 59.3935 30.6249 60.7814 29.8802C62.3669 28.9974 64.1522 28.5382 65.9659 28.5468C66.022 28.5392 66.0791 28.5429 66.1338 28.5578C66.1884 28.5727 66.2395 28.5985 66.2841 28.6336C66.3286 28.6686 66.3657 28.7123 66.393 28.762C66.4204 28.8117 66.4375 28.8664 66.4434 28.9229V35.7263C66.4434 35.9998 66.2729 36.1024 65.8977 36.1024C64.6603 36.0618 63.4228 36.1766 62.214 36.4443C61.2287 36.6481 60.2681 36.9576 59.3488 37.3673C58.689 37.6656 58.097 38.0961 57.6093 38.6323V56.0682C57.6093 56.4101 57.4729 56.5468 57.1659 56.5468H50.4465C50.3836 56.5574 50.3192 56.5551 50.2572 56.5401C50.1952 56.525 50.1369 56.4974 50.0859 56.459C50.0348 56.4207 49.9921 56.3723 49.9603 56.3168C49.9285 56.2614 49.9082 56.2001 49.9008 56.1366V37.0596C49.9008 36.2391 49.9008 35.3844 49.8667 34.4955C49.8326 33.6066 49.8326 32.7178 49.7985 31.8289C49.7985 31.0425 49.7302 30.2904 49.662 29.5041C49.653 29.4637 49.652 29.4219 49.6591 29.3811C49.6662 29.3403 49.6813 29.3013 49.7035 29.2663C49.7256 29.2314 49.7545 29.2012 49.7884 29.1774C49.8222 29.1537 49.8604 29.1369 49.9008 29.128C49.9008 29.0938 49.969 29.0938 50.0031 29.128Z" fill="#9999FF"/>
</g>
<defs>
<clipPath id="clip0_40_57">
<rect width="81.8605" height="80" fill="white"/>
</clipPath>
</defs>
</svg>
