<svg id="Glyph" xmlns="http://www.w3.org/2000/svg" viewBox="0 0 512 512"><g id="Glyph-2" data-name="Glyph"><path d="M474,416H326a6,6,0,0,0,0,12H474a6,6,0,0,0,0-12Z"/><path d="M474,464H326a6,6,0,0,0,0,12H474a6,6,0,0,0,0-12Z"/><path d="M474,368H326a6,6,0,0,0,0,12H474a6,6,0,0,0,0-12Z"/><path d="M458,0H54A54.081,54.081,0,0,0,0,54V458a54.081,54.081,0,0,0,54,54H458a54.081,54.081,0,0,0,54-54V54A54.081,54.081,0,0,0,458,0ZM382,50h64a12,12,0,0,1,0,24H382a12,12,0,0,1,0-24ZM190,50a12,12,0,1,1-12,12A11.984,11.984,0,0,1,190,50Zm-64,0a12,12,0,1,1-12,12A11.984,11.984,0,0,1,126,50ZM62,50A12,12,0,1,1,50,62,11.984,11.984,0,0,1,62,50ZM500,458a42.046,42.046,0,0,1-42,42H54a42.046,42.046,0,0,1-42-42V120H500Z"/><rect x="316" y="280" width="164" height="64" rx="18"/><path d="M270,280H54a18.027,18.027,0,0,0-18,18V458a18.027,18.027,0,0,0,18,18H270a18.027,18.027,0,0,0,18-18V298A18.027,18.027,0,0,0,270,280Zm6,101.28-9.68-10.32a29.877,29.877,0,0,0-41.6-2.08l-29.84,26a18.045,18.045,0,0,1-23.64,0L109.92,341.4a29.916,29.916,0,0,0-40.32.8L48,362.64V298a5.992,5.992,0,0,1,6-6H270a5.992,5.992,0,0,1,6,6Z"/><circle cx="184" cy="328" r="24"/><path d="M50,248H462a18.027,18.027,0,0,0,18-18V162a18.027,18.027,0,0,0-18-18H50a18.027,18.027,0,0,0-18,18v68A18.027,18.027,0,0,0,50,248Zm94-74a6,6,0,0,1,12,0v44a6,6,0,0,1-12,0Zm-52-6a23.972,23.972,0,0,1,17.241,40.657l3.849,6.167a6,6,0,1,1-10.18,6.352l-3.887-6.229A24,24,0,1,1,92,168Z"/><circle cx="92" cy="192" r="12"/></g></svg>